# xmcd CD database file
# 
# Track frame offsets:
#       182
#       22337
#       46060
#       63867
#       83247
#       102270
#       120297
#       138830
#       158565
#       176802
#       202320
#       223152
#       244005
#       266180
#       280250
#       298030
# 
# Disc length: 4289 seconds
# 
# Revision: 4
# Processed by: cddbd v1.4PL0 Copyright (c) Steve Scherf et al.
# Submitted via: Steven_Parker 1
# 
DISCID=f110bf10
DTITLE=Various Artist - New Visions: The New Accoustics
DYEAR=1998
DGENRE=Acoustic
TTITLE0=Strunz and Farah - El Jaguar
TTITLE1=Bruce BeeVar - Tangarro
TTITLE2=Ottmar Liebert - Passing Storm
TTITLE3=Trapazoid - Hawk
TTITLE4=John Dean - Remebering Greensleeves
TTITLE5=Paul Winter Consort - Montana
TTITLE6=John Nilsen - On a Clear Night
TTITLE7=John Chappell - Dusk
TTITLE8=Danny Heines - Open Story
TTITLE9=Bob Kindler - Discrimination (excerpt)
TTITLE10=Peter Kater - Blue (August Improvisation)
TTITLE11=Craig Chaquico - Mountain in the Mist
TTITLE12=Wind Machine - China
TTITLE13=Bela Fleck - Arkansas Traveler
TTITLE14=Scott Moulton - Icicles
TTITLE15=Eugene Friesen, with Paul Halley - First Ride
EXTD=
EXTT0=
EXTT1=
EXTT2=
EXTT3=
EXTT4=
EXTT5=
EXTT6=
EXTT7=
EXTT8=
EXTT9=
EXTT10=
EXTT11=
EXTT12=
EXTT13=
EXTT14=
EXTT15=
PLAYORDER=
